<?xml version="1.0" standalone="no"?>
<!DOCTYPE svg PUBLIC "-//W3C//DTD SVG 20010904//EN"
 "http://www.w3.org/TR/2001/REC-SVG-20010904/DTD/svg10.dtd">
<svg version="1.0" xmlns="http://www.w3.org/2000/svg"
 width="2048.000000pt" height="2048.000000pt" viewBox="0 0 2048.000000 2048.000000"
 preserveAspectRatio="xMidYMid meet">

<g transform="translate(0.000000,2048.000000) scale(0.100000,-0.100000)"
fill="#000000" stroke="none">
<path d="M13168 12406 c-342 -94 -671 -802 -809 -1735 -70 -479 -77 -1011 -19
-1466 63 -491 202 -931 381 -1205 143 -219 394 -356 509 -278 45 30 74 88 66
131 -12 62 -41 93 -122 132 -93 44 -160 105 -219 199 -159 255 -273 648 -332
1141 -25 216 -26 831 0 1065 63 576 187 1051 375 1435 79 163 194 315 236 315
8 0 19 -7 26 -15 7 -8 30 -20 52 -25 82 -23 158 33 158 116 0 55 -18 91 -66
134 -67 58 -154 79 -236 56z"/>
<path d="M2960 12162 c-52 -26 -74 -67 -108 -209 -107 -440 -186 -1027 -233
-1743 -17 -246 -17 -922 -1 -1115 58 -677 206 -1105 461 -1335 125 -114 275
-173 436 -172 141 1 329 69 382 139 34 45 37 119 7 160 -58 77 -123 86 -244
32 -143 -63 -275 -40 -390 67 -186 174 -299 526 -352 1089 -17 182 -17 927 0
1170 39 559 147 1443 206 1695 32 132 15 195 -60 226 -44 18 -62 18 -104 -4z"/>
<path d="M13766 11159 c-54 -43 -55 -46 -70 -516 -8 -241 -20 -756 -27 -1144
-12 -700 -12 -706 8 -745 58 -112 198 -112 253 1 20 42 22 65 27 321 7 317 -9
278 128 315 44 11 128 41 187 65 59 24 112 44 118 44 7 0 10 -85 11 -252 0
-427 14 -514 84 -558 62 -38 164 -17 195 41 26 47 27 88 19 499 -5 234 -4 700
0 1035 8 564 8 613 -8 644 -19 37 -71 71 -111 71 -40 0 -92 -34 -111 -71 -33
-64 -57 -354 -68 -818 l-6 -285 -33 -8 c-17 -5 -87 -34 -155 -64 -94 -43 -220
-94 -231 -94 -1 0 -1 321 -1 713 0 682 -1 714 -19 751 -36 72 -132 100 -190
55z"/>
<path d="M5485 11069 c-41 -11 -83 -54 -169 -169 -152 -203 -287 -309 -379
-297 -87 12 -167 141 -167 270 0 104 -51 172 -129 172 -116 0 -164 -116 -127
-306 48 -243 219 -415 425 -427 127 -7 232 32 357 132 38 30 69 54 70 53 1 -1
-16 -126 -37 -277 -119 -860 -239 -1882 -239 -2042 0 -81 24 -122 85 -149 32
-14 55 -18 81 -13 45 8 99 55 113 97 6 18 22 149 36 292 42 430 129 1134 241
1943 60 440 70 545 54 601 -15 55 -63 105 -115 120 -46 13 -58 13 -100 0z"/>
<path d="M9208 10861 c-154 -61 -290 -248 -421 -581 -62 -158 -112 -324 -196
-645 l-11 -41 -74 -13 c-126 -23 -192 -75 -190 -152 3 -82 72 -134 163 -124
53 7 53 6 48 -17 -15 -57 -39 -292 -40 -383 0 -84 3 -107 21 -142 30 -58 66
-83 117 -83 86 0 140 67 129 160 -2 25 0 81 6 125 14 114 61 369 69 377 3 3
141 16 306 28 270 19 442 38 501 55 20 6 22 1 37 -117 9 -68 30 -258 47 -423
51 -509 58 -544 115 -594 68 -60 175 -39 216 41 21 41 23 84 9 173 -5 33 -23
197 -40 365 -111 1117 -272 1738 -502 1935 -84 71 -212 94 -310 56z m145 -313
c58 -78 117 -226 171 -428 22 -86 86 -380 86 -398 0 -9 -136 -28 -305 -42 -66
-6 -182 -17 -258 -26 -77 -8 -141 -13 -144 -10 -7 7 70 275 124 430 57 164
138 338 198 421 67 95 90 104 128 53z"/>
<path d="M15676 10865 c-345 -72 -615 -292 -642 -525 -17 -152 74 -299 245
-397 25 -15 47 -28 49 -29 2 -1 -19 -30 -47 -65 -129 -160 -199 -374 -172
-529 45 -253 286 -430 611 -446 96 -5 109 -4 150 18 107 55 122 183 29 249
-26 19 -51 23 -148 30 -141 9 -221 34 -285 90 -25 22 -50 55 -57 76 -38 116
54 306 223 455 96 86 128 153 108 227 -16 59 -65 95 -172 129 -160 50 -238
101 -238 156 0 12 13 42 29 67 81 129 334 250 491 235 51 -4 73 -2 100 12 50
25 75 65 74 116 -1 56 -32 99 -86 121 -58 23 -177 28 -262 10z"/>
<path d="M7942 10843 c-18 -9 -41 -26 -51 -39 -27 -34 -57 -156 -86 -340 -79
-517 -156 -1887 -114 -2038 23 -83 105 -124 175 -90 72 36 77 51 86 266 4 106
14 281 23 388 8 107 29 384 45 615 40 557 71 827 117 1025 25 111 0 186 -73
216 -43 18 -81 17 -122 -3z"/>
<path d="M6315 10748 c-38 -21 -64 -51 -76 -87 -7 -20 -20 -46 -30 -59 -30
-39 -33 -77 -8 -128 l22 -46 -21 -341 c-12 -188 -26 -448 -32 -577 -12 -267
-23 -442 -46 -717 -19 -228 -13 -274 41 -322 19 -16 47 -32 64 -36 72 -16 150
44 170 131 26 116 77 963 88 1472 4 195 10 302 16 302 18 0 106 -98 151 -168
141 -220 203 -487 176 -761 -34 -354 -155 -641 -439 -1036 -77 -107 -102 -150
-107 -183 -21 -140 144 -222 245 -122 33 34 189 252 268 376 108 169 210 399
267 599 52 185 61 255 61 485 0 234 -9 299 -66 472 -91 280 -301 539 -511 632
-39 18 -61 35 -77 61 -32 54 -108 80 -156 53z"/>
<path d="M17459 10527 c-19 -12 -42 -39 -53 -60 -17 -37 -18 -51 -6 -310 7
-149 10 -343 7 -432 -7 -159 -22 -285 -36 -285 -17 0 -120 143 -308 425 -116
173 -229 330 -267 372 -117 126 -229 162 -341 109 -114 -53 -183 -188 -222
-438 -45 -288 -3 -919 67 -1018 75 -105 232 -58 233 69 0 20 -5 74 -12 121
-19 138 -25 410 -12 590 11 147 43 356 58 370 11 11 83 -87 268 -365 270 -408
363 -513 487 -550 65 -19 93 -19 152 1 189 65 253 337 226 969 -12 301 -18
350 -44 390 -42 64 -134 84 -197 42z"/>
</g>
</svg>
